# Wavefront OBJ file automatically generated by Tiled2Unity

# Vertices (Count = 224)
v 0 -1 0
v -1 -1 0
v -1 0 0
v 0 0 0
v -2 -1 0
v -2 0 0
v -3 -1 0
v -3 0 0
v -4 -1 0
v -4 0 0
v -5 -1 0
v -5 0 0
v -6 -1 0
v -6 0 0
v -7 -1 0
v -7 0 0
v -8 -1 0
v -8 0 0
v -9 -1 0
v -9 0 0
v -10 -1 0
v -10 0 0
v -11 -1 0
v -11 0 0
v -12 -1 0
v -12 0 0
v -13 -1 0
v -13 0 0
v -14 -1 0
v -14 0 0
v -15 -1 0
v -15 0 0
v 0 -2 0
v -1 -2 0
v -2 -2 0
v -3 -2 0
v -4 -2 0
v -5 -2 0
v -6 -2 0
v -7 -2 0
v -8 -2 0
v -9 -2 0
v -10 -2 0
v -11 -2 0
v -12 -2 0
v -13 -2 0
v -14 -2 0
v -15 -2 0
v 0 -3 0
v -1 -3 0
v -2 -3 0
v -3 -3 0
v -4 -3 0
v -5 -3 0
v -6 -3 0
v -7 -3 0
v -8 -3 0
v -9 -3 0
v -10 -3 0
v -11 -3 0
v -12 -3 0
v -13 -3 0
v -14 -3 0
v -15 -3 0
v 0 -4 0
v -1 -4 0
v -2 -4 0
v -3 -4 0
v -4 -4 0
v -5 -4 0
v -6 -4 0
v -7 -4 0
v -8 -4 0
v -9 -4 0
v -10 -4 0
v -11 -4 0
v -12 -4 0
v -13 -4 0
v -14 -4 0
v -15 -4 0
v 0 -5 0
v -1 -5 0
v -2 -5 0
v -3 -5 0
v -4 -5 0
v -5 -5 0
v -6 -5 0
v -7 -5 0
v -8 -5 0
v -9 -5 0
v -10 -5 0
v -11 -5 0
v -12 -5 0
v -13 -5 0
v -14 -5 0
v -15 -5 0
v 0 -6 0
v -1 -6 0
v -2 -6 0
v -3 -6 0
v -4 -6 0
v -5 -6 0
v -6 -6 0
v -7 -6 0
v -8 -6 0
v -9 -6 0
v -10 -6 0
v -11 -6 0
v -12 -6 0
v -13 -6 0
v -14 -6 0
v -15 -6 0
v 0 -7 0
v -1 -7 0
v -2 -7 0
v -3 -7 0
v -4 -7 0
v -5 -7 0
v -6 -7 0
v -7 -7 0
v -8 -7 0
v -9 -7 0
v -10 -7 0
v -11 -7 0
v -12 -7 0
v -13 -7 0
v -14 -7 0
v -15 -7 0
v 0 -8 0
v -1 -8 0
v -2 -8 0
v -3 -8 0
v -4 -8 0
v -5 -8 0
v -6 -8 0
v -7 -8 0
v -8 -8 0
v -9 -8 0
v -10 -8 0
v -11 -8 0
v -12 -8 0
v -13 -8 0
v -14 -8 0
v -15 -8 0
v 0 -9 0
v -1 -9 0
v -2 -9 0
v -3 -9 0
v -4 -9 0
v -5 -9 0
v -6 -9 0
v -7 -9 0
v -8 -9 0
v -9 -9 0
v -10 -9 0
v -11 -9 0
v -12 -9 0
v -13 -9 0
v -14 -9 0
v -15 -9 0
v 0 -10 0
v -1 -10 0
v -2 -10 0
v -3 -10 0
v -4 -10 0
v -5 -10 0
v -6 -10 0
v -7 -10 0
v -8 -10 0
v -9 -10 0
v -10 -10 0
v -11 -10 0
v -12 -10 0
v -13 -10 0
v -14 -10 0
v -15 -10 0
v 0 -11 0
v -1 -11 0
v -2 -11 0
v -3 -11 0
v -4 -11 0
v -5 -11 0
v -6 -11 0
v -7 -11 0
v -8 -11 0
v -9 -11 0
v -10 -11 0
v -11 -11 0
v -12 -11 0
v -13 -11 0
v -14 -11 0
v -15 -11 0
v 0 -12 0
v -1 -12 0
v -2 -12 0
v -3 -12 0
v -4 -12 0
v -5 -12 0
v -6 -12 0
v -7 -12 0
v -8 -12 0
v -9 -12 0
v -10 -12 0
v -11 -12 0
v -12 -12 0
v -13 -12 0
v -14 -12 0
v -15 -12 0
v 0 -13 0
v -1 -13 0
v -2 -13 0
v -3 -13 0
v -4 -13 0
v -5 -13 0
v -6 -13 0
v -7 -13 0
v -8 -13 0
v -9 -13 0
v -10 -13 0
v -11 -13 0
v -12 -13 0
v -13 -13 0
v -14 -13 0
v -15 -13 0

# Texture Coorindates (Count = 128)
vt 0.2501221 0.952503
vt 0.3123779 0.952503
vt 0.3123779 0.9998779
vt 0.2501221 0.9998779
vt 0.9376221 0.952503
vt 0.9998779 0.952503
vt 0.9998779 0.9998779
vt 0.9376221 0.9998779
vt 0.06262207 0.904884
vt 0.1248779 0.904884
vt 0.1248779 0.9522589
vt 0.06262207 0.9522589
vt 0.1251221 0.904884
vt 0.1873779 0.904884
vt 0.1873779 0.9522589
vt 0.1251221 0.9522589
vt 0.1251221 0.8096459
vt 0.1873779 0.8096459
vt 0.1873779 0.8570208
vt 0.1251221 0.8570208
vt 0.5001221 0.8096459
vt 0.5623779 0.8096459
vt 0.5623779 0.8570208
vt 0.5001221 0.8570208
vt 0.8126221 0.5715507
vt 0.8748779 0.5715507
vt 0.8748779 0.6189256
vt 0.8126221 0.6189256
vt 0.9376221 0.904884
vt 0.9998779 0.904884
vt 0.9998779 0.9522589
vt 0.9376221 0.9522589
vt 0.5001221 0.7620268
vt 0.5623779 0.7620268
vt 0.5623779 0.8094018
vt 0.5001221 0.8094018
vt 0.8126221 0.8572649
vt 0.8748779 0.8572649
vt 0.8748779 0.9046398
vt 0.8126221 0.9046398
vt 0.8751221 0.8572649
vt 0.9373779 0.8572649
vt 0.9373779 0.9046398
vt 0.8751221 0.9046398
vt 0.9376221 0.8572649
vt 0.9998779 0.8572649
vt 0.9998779 0.9046398
vt 0.9376221 0.9046398
vt 0.06262207 0.8572649
vt 0.1248779 0.8572649
vt 0.1248779 0.9046398
vt 0.06262207 0.9046398
vt 0.0001220703 0.7620268
vt 0.06237793 0.7620268
vt 0.06237793 0.8094018
vt 0.0001220703 0.8094018
vt 0.06262207 0.7620268
vt 0.1248779 0.7620268
vt 0.1248779 0.8094018
vt 0.06262207 0.8094018
vt 0.1251221 0.8572649
vt 0.1873779 0.8572649
vt 0.1873779 0.9046398
vt 0.1251221 0.9046398
vt 0.7501221 0.6191697
vt 0.8123779 0.6191697
vt 0.8123779 0.6665446
vt 0.7501221 0.6665446
vt 0.0001220703 0.952503
vt 0.06237793 0.952503
vt 0.06237793 0.9998779
vt 0.0001220703 0.9998779
vt 0.0001220703 0.8096459
vt 0.06237793 0.8096459
vt 0.06237793 0.8570208
vt 0.0001220703 0.8570208
vt 0.06262207 0.8096459
vt 0.1248779 0.8096459
vt 0.1248779 0.8570208
vt 0.06262207 0.8570208
vt 0.1251221 0.952503
vt 0.1873779 0.952503
vt 0.1873779 0.9998779
vt 0.1251221 0.9998779
vt 0.7501221 0.5715507
vt 0.8123779 0.5715507
vt 0.8123779 0.6189256
vt 0.7501221 0.6189256
vt 0.06262207 0.952503
vt 0.1248779 0.952503
vt 0.1248779 0.9998779
vt 0.06262207 0.9998779
vt 0.1251221 0.5239316
vt 0.1873779 0.5239316
vt 0.1873779 0.5713065
vt 0.1251221 0.5713065
vt 0.7501221 0.5239316
vt 0.8123779 0.5239316
vt 0.8123779 0.5713065
vt 0.7501221 0.5713065
vt 0.0001220703 0.904884
vt 0.06237793 0.904884
vt 0.06237793 0.9522589
vt 0.0001220703 0.9522589
vt 0.7501221 0.4763125
vt 0.8123779 0.4763125
vt 0.8123779 0.5236875
vt 0.7501221 0.5236875
vt 0.0001220703 0.6667888
vt 0.06237793 0.6667888
vt 0.06237793 0.7141637
vt 0.0001220703 0.7141637
vt 0.06262207 0.6667888
vt 0.1248779 0.6667888
vt 0.1248779 0.7141637
vt 0.06262207 0.7141637
vt 0.1251221 0.6667888
vt 0.1873779 0.6667888
vt 0.1873779 0.7141637
vt 0.1251221 0.7141637
vt 0.0001220703 0.8572649
vt 0.06237793 0.8572649
vt 0.06237793 0.9046398
vt 0.0001220703 0.9046398
vt 0.0001220703 0.7144078
vt 0.06237793 0.7144078
vt 0.06237793 0.7617827
vt 0.0001220703 0.7617827

# Normal
vn 0 0 -1

# Groups (Count = 1)
g mesh_[00]_[00]
f  1/1/1  2/2/1  3/3/1  4/4/1 
f  2/1/1  5/2/1  6/3/1  3/4/1 
f  5/1/1  7/2/1  8/3/1  6/4/1 
f  7/1/1  9/2/1  10/3/1  8/4/1 
f  9/1/1  11/2/1  12/3/1  10/4/1 
f  11/1/1  13/2/1  14/3/1  12/4/1 
f  13/5/1  15/6/1  16/7/1  14/8/1 
f  15/9/1  17/10/1  18/11/1  16/12/1 
f  17/9/1  19/10/1  20/11/1  18/12/1 
f  19/9/1  21/10/1  22/11/1  20/12/1 
f  21/9/1  23/10/1  24/11/1  22/12/1 
f  23/9/1  25/10/1  26/11/1  24/12/1 
f  25/13/1  27/14/1  28/15/1  26/16/1 
f  27/17/1  29/18/1  30/19/1  28/20/1 
f  29/21/1  31/22/1  32/23/1  30/24/1 
f  33/25/1  34/26/1  2/27/1  1/28/1 
f  34/25/1  35/26/1  5/27/1  2/28/1 
f  35/25/1  36/26/1  7/27/1  5/28/1 
f  36/25/1  37/26/1  9/27/1  7/28/1 
f  37/25/1  38/26/1  11/27/1  9/28/1 
f  38/25/1  39/26/1  13/27/1  11/28/1 
f  39/29/1  40/30/1  15/31/1  13/32/1 
f  40/9/1  41/10/1  17/11/1  15/12/1 
f  41/9/1  42/10/1  19/11/1  17/12/1 
f  42/9/1  43/10/1  21/11/1  19/12/1 
f  43/9/1  44/10/1  23/11/1  21/12/1 
f  44/9/1  45/10/1  25/11/1  23/12/1 
f  45/13/1  46/14/1  27/15/1  25/16/1 
f  46/17/1  47/18/1  29/19/1  27/20/1 
f  47/33/1  48/34/1  31/35/1  29/36/1 
f  49/37/1  50/38/1  34/39/1  33/40/1 
f  50/37/1  51/38/1  35/39/1  34/40/1 
f  51/37/1  52/38/1  36/39/1  35/40/1 
f  52/41/1  53/42/1  37/43/1  36/44/1 
f  53/41/1  54/42/1  38/43/1  37/44/1 
f  54/41/1  55/42/1  39/43/1  38/44/1 
f  55/45/1  56/46/1  40/47/1  39/48/1 
f  56/9/1  57/10/1  41/11/1  40/12/1 
f  57/9/1  58/10/1  42/11/1  41/12/1 
f  58/9/1  59/10/1  43/11/1  42/12/1 
f  59/9/1  60/10/1  44/11/1  43/12/1 
f  60/9/1  61/10/1  45/11/1  44/12/1 
f  61/13/1  62/14/1  46/15/1  45/16/1 
f  62/17/1  63/18/1  47/19/1  46/20/1 
f  63/33/1  64/34/1  48/35/1  47/36/1 
f  65/49/1  66/50/1  50/51/1  49/52/1 
f  66/49/1  67/50/1  51/51/1  50/52/1 
f  67/49/1  68/50/1  52/51/1  51/52/1 
f  68/53/1  69/54/1  53/55/1  52/56/1 
f  69/9/1  70/10/1  54/11/1  53/12/1 
f  70/9/1  71/10/1  55/11/1  54/12/1 
f  71/9/1  72/10/1  56/11/1  55/12/1 
f  72/9/1  73/10/1  57/11/1  56/12/1 
f  73/9/1  74/10/1  58/11/1  57/12/1 
f  74/9/1  75/10/1  59/11/1  58/12/1 
f  75/9/1  76/10/1  60/11/1  59/12/1 
f  76/57/1  77/58/1  61/59/1  60/60/1 
f  77/61/1  78/62/1  62/63/1  61/64/1 
f  78/17/1  79/18/1  63/19/1  62/20/1 
f  79/65/1  80/66/1  64/67/1  63/68/1 
f  81/17/1  82/18/1  66/19/1  65/20/1 
f  82/17/1  83/18/1  67/19/1  66/20/1 
f  83/69/1  84/70/1  68/71/1  67/72/1 
f  84/73/1  85/74/1  69/75/1  68/76/1 
f  85/9/1  86/10/1  70/11/1  69/12/1 
f  86/9/1  87/10/1  71/11/1  70/12/1 
f  87/9/1  88/10/1  72/11/1  71/12/1 
f  88/9/1  89/10/1  73/11/1  72/12/1 
f  89/9/1  90/10/1  74/11/1  73/12/1 
f  90/9/1  91/10/1  75/11/1  74/12/1 
f  91/9/1  92/10/1  76/11/1  75/12/1 
f  92/77/1  93/78/1  77/79/1  76/80/1 
f  93/81/1  94/82/1  78/83/1  77/84/1 
f  94/17/1  95/18/1  79/19/1  78/20/1 
f  95/85/1  96/86/1  80/87/1  79/88/1 
f  97/69/1  98/70/1  82/71/1  81/72/1 
f  98/89/1  99/90/1  83/91/1  82/92/1 
f  99/73/1  100/74/1  84/75/1  83/76/1 
f  100/9/1  101/10/1  85/11/1  84/12/1 
f  101/9/1  102/10/1  86/11/1  85/12/1 
f  102/9/1  103/10/1  87/11/1  86/12/1 
f  103/9/1  104/10/1  88/11/1  87/12/1 
f  104/9/1  105/10/1  89/11/1  88/12/1 
f  105/9/1  106/10/1  90/11/1  89/12/1 
f  106/9/1  107/10/1  91/11/1  90/12/1 
f  107/93/1  108/94/1  92/95/1  91/96/1 
f  108/9/1  109/10/1  93/11/1  92/12/1 
f  109/13/1  110/14/1  94/15/1  93/16/1 
f  110/17/1  111/18/1  95/19/1  94/20/1 
f  111/97/1  112/98/1  96/99/1  95/100/1 
f  113/101/1  114/102/1  98/103/1  97/104/1 
f  114/9/1  115/10/1  99/11/1  98/12/1 
f  115/9/1  116/10/1  100/11/1  99/12/1 
f  116/9/1  117/10/1  101/11/1  100/12/1 
f  117/9/1  118/10/1  102/11/1  101/12/1 
f  118/9/1  119/10/1  103/11/1  102/12/1 
f  119/9/1  120/10/1  104/11/1  103/12/1 
f  120/9/1  121/10/1  105/11/1  104/12/1 
f  121/9/1  122/10/1  106/11/1  105/12/1 
f  122/9/1  123/10/1  107/11/1  106/12/1 
f  123/9/1  124/10/1  108/11/1  107/12/1 
f  124/9/1  125/10/1  109/11/1  108/12/1 
f  125/13/1  126/14/1  110/15/1  109/16/1 
f  126/17/1  127/18/1  111/19/1  110/20/1 
f  127/105/1  128/106/1  112/107/1  111/108/1 
f  129/101/1  130/102/1  114/103/1  113/104/1 
f  130/9/1  131/10/1  115/11/1  114/12/1 
f  131/9/1  132/10/1  116/11/1  115/12/1 
f  132/9/1  133/10/1  117/11/1  116/12/1 
f  133/9/1  134/10/1  118/11/1  117/12/1 
f  134/9/1  135/10/1  119/11/1  118/12/1 
f  135/9/1  136/10/1  120/11/1  119/12/1 
f  136/9/1  137/10/1  121/11/1  120/12/1 
f  137/57/1  138/58/1  122/59/1  121/60/1 
f  138/109/1  139/110/1  123/111/1  122/112/1 
f  139/113/1  140/114/1  124/115/1  123/116/1 
f  140/117/1  141/118/1  125/119/1  124/120/1 
f  141/61/1  142/62/1  126/63/1  125/64/1 
f  142/17/1  143/18/1  127/19/1  126/20/1 
f  143/17/1  144/18/1  128/19/1  127/20/1 
f  145/121/1  146/122/1  130/123/1  129/124/1 
f  146/53/1  147/54/1  131/55/1  130/56/1 
f  147/9/1  148/10/1  132/11/1  131/12/1 
f  148/9/1  149/10/1  133/11/1  132/12/1 
f  149/93/1  150/94/1  134/95/1  133/96/1 
f  150/9/1  151/10/1  135/11/1  134/12/1 
f  151/9/1  152/10/1  136/11/1  135/12/1 
f  152/9/1  153/10/1  137/11/1  136/12/1 
f  153/13/1  154/14/1  138/15/1  137/16/1 
f  154/17/1  155/18/1  139/19/1  138/20/1 
f  155/17/1  156/18/1  140/19/1  139/20/1 
f  156/69/1  157/70/1  141/71/1  140/72/1 
f  157/125/1  158/126/1  142/127/1  141/128/1 
f  158/81/1  159/82/1  143/83/1  142/84/1 
f  159/17/1  160/18/1  144/19/1  143/20/1 
f  161/17/1  162/18/1  146/19/1  145/20/1 
f  162/101/1  163/102/1  147/103/1  146/104/1 
f  163/9/1  164/10/1  148/11/1  147/12/1 
f  164/9/1  165/10/1  149/11/1  148/12/1 
f  165/9/1  166/10/1  150/11/1  149/12/1 
f  166/9/1  167/10/1  151/11/1  150/12/1 
f  167/9/1  168/10/1  152/11/1  151/12/1 
f  168/57/1  169/58/1  153/59/1  152/60/1 
f  169/61/1  170/62/1  154/63/1  153/64/1 
f  170/17/1  171/18/1  155/19/1  154/20/1 
f  171/69/1  172/70/1  156/71/1  155/72/1 
f  172/73/1  173/74/1  157/75/1  156/76/1 
f  173/9/1  174/10/1  158/11/1  157/12/1 
f  174/13/1  175/14/1  159/15/1  158/16/1 
f  175/17/1  176/18/1  160/19/1  159/20/1 
f  177/17/1  178/18/1  162/19/1  161/20/1 
f  178/101/1  179/102/1  163/103/1  162/104/1 
f  179/9/1  180/10/1  164/11/1  163/12/1 
f  180/9/1  181/10/1  165/11/1  164/12/1 
f  181/9/1  182/10/1  166/11/1  165/12/1 
f  182/57/1  183/58/1  167/59/1  166/60/1 
f  183/49/1  184/50/1  168/51/1  167/52/1 
f  184/61/1  185/62/1  169/63/1  168/64/1 
f  185/17/1  186/18/1  170/19/1  169/20/1 
f  186/69/1  187/70/1  171/71/1  170/72/1 
f  187/73/1  188/74/1  172/75/1  171/76/1 
f  188/9/1  189/10/1  173/11/1  172/12/1 
f  189/93/1  190/94/1  174/95/1  173/96/1 
f  190/13/1  191/14/1  175/15/1  174/16/1 
f  191/17/1  192/18/1  176/19/1  175/20/1 
f  193/17/1  194/18/1  178/19/1  177/20/1 
f  194/121/1  195/122/1  179/123/1  178/124/1 
f  195/117/1  196/118/1  180/119/1  179/120/1 
f  196/117/1  197/118/1  181/119/1  180/120/1 
f  197/117/1  198/118/1  182/119/1  181/120/1 
f  198/61/1  199/62/1  183/63/1  182/64/1 
f  199/17/1  200/18/1  184/19/1  183/20/1 
f  200/17/1  201/18/1  185/19/1  184/20/1 
f  201/17/1  202/18/1  186/19/1  185/20/1 
f  202/101/1  203/102/1  187/103/1  186/104/1 
f  203/9/1  204/10/1  188/11/1  187/12/1 
f  204/57/1  205/58/1  189/59/1  188/60/1 
f  205/49/1  206/50/1  190/51/1  189/52/1 
f  206/61/1  207/62/1  191/63/1  190/64/1 
f  207/17/1  208/18/1  192/19/1  191/20/1 
f  209/17/1  210/18/1  194/19/1  193/20/1 
f  210/17/1  211/18/1  195/19/1  194/20/1 
f  211/17/1  212/18/1  196/19/1  195/20/1 
f  212/17/1  213/18/1  197/19/1  196/20/1 
f  213/17/1  214/18/1  198/19/1  197/20/1 
f  214/17/1  215/18/1  199/19/1  198/20/1 
f  215/17/1  216/18/1  200/19/1  199/20/1 
f  216/17/1  217/18/1  201/19/1  200/20/1 
f  217/17/1  218/18/1  202/19/1  201/20/1 
f  218/121/1  219/122/1  203/123/1  202/124/1 
f  219/117/1  220/118/1  204/119/1  203/120/1 
f  220/61/1  221/62/1  205/63/1  204/64/1 
f  221/17/1  222/18/1  206/19/1  205/20/1 
f  222/17/1  223/18/1  207/19/1  206/20/1 
f  223/17/1  224/18/1  208/19/1  207/20/1 
