# Wavefront OBJ file automatically generated by Tiled2Unity

# Vertices (Count = 352)
v 0 -1 0
v -1 -1 0
v -1 0 0
v 0 0 0
v -2 -1 0
v -2 0 0
v -3 -1 0
v -3 0 0
v -4 -1 0
v -4 0 0
v -5 -1 0
v -5 0 0
v -6 -1 0
v -6 0 0
v -7 -1 0
v -7 0 0
v -8 -1 0
v -8 0 0
v -9 -1 0
v -9 0 0
v -10 -1 0
v -10 0 0
v -11 -1 0
v -11 0 0
v -12 -1 0
v -12 0 0
v -13 -1 0
v -13 0 0
v -14 -1 0
v -14 0 0
v -15 -1 0
v -15 0 0
v -16 -1 0
v -16 0 0
v -17 -1 0
v -17 0 0
v -18 -1 0
v -18 0 0
v -19 -1 0
v -19 0 0
v -20 -1 0
v -20 0 0
v -21 -1 0
v -21 0 0
v 0 -2 0
v -1 -2 0
v -2 -2 0
v -3 -2 0
v -4 -2 0
v -5 -2 0
v -6 -2 0
v -7 -2 0
v -8 -2 0
v -9 -2 0
v -10 -2 0
v -11 -2 0
v -12 -2 0
v -13 -2 0
v -14 -2 0
v -15 -2 0
v -16 -2 0
v -17 -2 0
v -18 -2 0
v -19 -2 0
v -20 -2 0
v -21 -2 0
v 0 -3 0
v -1 -3 0
v -2 -3 0
v -3 -3 0
v -4 -3 0
v -5 -3 0
v -6 -3 0
v -7 -3 0
v -8 -3 0
v -9 -3 0
v -10 -3 0
v -11 -3 0
v -12 -3 0
v -13 -3 0
v -14 -3 0
v -15 -3 0
v -16 -3 0
v -17 -3 0
v -18 -3 0
v -19 -3 0
v -20 -3 0
v -21 -3 0
v 0 -4 0
v -1 -4 0
v -2 -4 0
v -3 -4 0
v -4 -4 0
v -5 -4 0
v -6 -4 0
v -7 -4 0
v -8 -4 0
v -9 -4 0
v -10 -4 0
v -11 -4 0
v -12 -4 0
v -13 -4 0
v -14 -4 0
v -15 -4 0
v -16 -4 0
v -17 -4 0
v -18 -4 0
v -19 -4 0
v -20 -4 0
v -21 -4 0
v 0 -5 0
v -1 -5 0
v -2 -5 0
v -3 -5 0
v -4 -5 0
v -5 -5 0
v -6 -5 0
v -7 -5 0
v -8 -5 0
v -9 -5 0
v -10 -5 0
v -11 -5 0
v -12 -5 0
v -13 -5 0
v -14 -5 0
v -15 -5 0
v -16 -5 0
v -17 -5 0
v -18 -5 0
v -19 -5 0
v -20 -5 0
v -21 -5 0
v 0 -6 0
v -1 -6 0
v -2 -6 0
v -3 -6 0
v -4 -6 0
v -5 -6 0
v -6 -6 0
v -7 -6 0
v -8 -6 0
v -9 -6 0
v -10 -6 0
v -11 -6 0
v -12 -6 0
v -13 -6 0
v -14 -6 0
v -15 -6 0
v -16 -6 0
v -17 -6 0
v -18 -6 0
v -19 -6 0
v -20 -6 0
v -21 -6 0
v 0 -7 0
v -1 -7 0
v -2 -7 0
v -3 -7 0
v -4 -7 0
v -5 -7 0
v -6 -7 0
v -7 -7 0
v -8 -7 0
v -9 -7 0
v -10 -7 0
v -11 -7 0
v -12 -7 0
v -13 -7 0
v -14 -7 0
v -15 -7 0
v -16 -7 0
v -17 -7 0
v -18 -7 0
v -19 -7 0
v -20 -7 0
v -21 -7 0
v 0 -8 0
v -1 -8 0
v -2 -8 0
v -3 -8 0
v -4 -8 0
v -5 -8 0
v -6 -8 0
v -7 -8 0
v -8 -8 0
v -9 -8 0
v -10 -8 0
v -11 -8 0
v -12 -8 0
v -13 -8 0
v -14 -8 0
v -15 -8 0
v -16 -8 0
v -17 -8 0
v -18 -8 0
v -19 -8 0
v -20 -8 0
v -21 -8 0
v 0 -9 0
v -1 -9 0
v -2 -9 0
v -3 -9 0
v -4 -9 0
v -5 -9 0
v -6 -9 0
v -7 -9 0
v -8 -9 0
v -9 -9 0
v -10 -9 0
v -11 -9 0
v -12 -9 0
v -13 -9 0
v -14 -9 0
v -15 -9 0
v -16 -9 0
v -17 -9 0
v -18 -9 0
v -19 -9 0
v -20 -9 0
v -21 -9 0
v 0 -10 0
v -1 -10 0
v -2 -10 0
v -3 -10 0
v -4 -10 0
v -5 -10 0
v -6 -10 0
v -7 -10 0
v -8 -10 0
v -9 -10 0
v -10 -10 0
v -11 -10 0
v -12 -10 0
v -13 -10 0
v -14 -10 0
v -15 -10 0
v -16 -10 0
v -17 -10 0
v -18 -10 0
v -19 -10 0
v -20 -10 0
v -21 -10 0
v 0 -11 0
v -1 -11 0
v -2 -11 0
v -3 -11 0
v -4 -11 0
v -5 -11 0
v -6 -11 0
v -7 -11 0
v -8 -11 0
v -9 -11 0
v -10 -11 0
v -11 -11 0
v -12 -11 0
v -13 -11 0
v -14 -11 0
v -15 -11 0
v -16 -11 0
v -17 -11 0
v -18 -11 0
v -19 -11 0
v -20 -11 0
v -21 -11 0
v 0 -12 0
v -1 -12 0
v -2 -12 0
v -3 -12 0
v -4 -12 0
v -5 -12 0
v -6 -12 0
v -7 -12 0
v -8 -12 0
v -9 -12 0
v -10 -12 0
v -11 -12 0
v -12 -12 0
v -13 -12 0
v -14 -12 0
v -15 -12 0
v -16 -12 0
v -17 -12 0
v -18 -12 0
v -19 -12 0
v -20 -12 0
v -21 -12 0
v 0 -13 0
v -1 -13 0
v -2 -13 0
v -3 -13 0
v -4 -13 0
v -5 -13 0
v -6 -13 0
v -7 -13 0
v -8 -13 0
v -9 -13 0
v -10 -13 0
v -11 -13 0
v -12 -13 0
v -13 -13 0
v -14 -13 0
v -15 -13 0
v -16 -13 0
v -17 -13 0
v -18 -13 0
v -19 -13 0
v -20 -13 0
v -21 -13 0
v 0 -14 0
v -1 -14 0
v -2 -14 0
v -3 -14 0
v -4 -14 0
v -5 -14 0
v -6 -14 0
v -7 -14 0
v -8 -14 0
v -9 -14 0
v -10 -14 0
v -11 -14 0
v -12 -14 0
v -13 -14 0
v -14 -14 0
v -15 -14 0
v -16 -14 0
v -17 -14 0
v -18 -14 0
v -19 -14 0
v -20 -14 0
v -21 -14 0
v 0 -15 0
v -1 -15 0
v -2 -15 0
v -3 -15 0
v -4 -15 0
v -5 -15 0
v -6 -15 0
v -7 -15 0
v -8 -15 0
v -9 -15 0
v -10 -15 0
v -11 -15 0
v -12 -15 0
v -13 -15 0
v -14 -15 0
v -15 -15 0
v -16 -15 0
v -17 -15 0
v -18 -15 0
v -19 -15 0
v -20 -15 0
v -21 -15 0

# Texture Coorindates (Count = 204)
vt 0.5001221 0.5715507
vt 0.5623779 0.5715507
vt 0.5623779 0.6189256
vt 0.5001221 0.6189256
vt 0.3751221 0.7144078
vt 0.4373779 0.7144078
vt 0.4373779 0.7617827
vt 0.3751221 0.7617827
vt 0.3751221 0.5715507
vt 0.4373779 0.5715507
vt 0.4373779 0.6189256
vt 0.3751221 0.6189256
vt 0.4376221 0.5715507
vt 0.4998779 0.5715507
vt 0.4998779 0.6189256
vt 0.4376221 0.6189256
vt 0.5001221 0.7144078
vt 0.5623779 0.7144078
vt 0.5623779 0.7617827
vt 0.5001221 0.7617827
vt 0.3751221 0.6667888
vt 0.4373779 0.6667888
vt 0.4373779 0.7141637
vt 0.3751221 0.7141637
vt 0.4376221 0.6667888
vt 0.4998779 0.6667888
vt 0.4998779 0.7141637
vt 0.4376221 0.7141637
vt 0.3751221 0.6191697
vt 0.4373779 0.6191697
vt 0.4373779 0.6665446
vt 0.3751221 0.6665446
vt 0.3751221 0.5239316
vt 0.4373779 0.5239316
vt 0.4373779 0.5713065
vt 0.3751221 0.5713065
vt 0.1251221 0.6191697
vt 0.1873779 0.6191697
vt 0.1873779 0.6665446
vt 0.1251221 0.6665446
vt 0.4376221 0.7144078
vt 0.4998779 0.7144078
vt 0.4998779 0.7617827
vt 0.4376221 0.7617827
vt 0.4376221 0.5239316
vt 0.4998779 0.5239316
vt 0.4998779 0.5713065
vt 0.4376221 0.5713065
vt 0.5001221 0.6191697
vt 0.5623779 0.6191697
vt 0.5623779 0.6665446
vt 0.5001221 0.6665446
vt 0.06262207 0.904884
vt 0.1248779 0.904884
vt 0.1248779 0.9522589
vt 0.06262207 0.9522589
vt 0.3751221 0.4763125
vt 0.4373779 0.4763125
vt 0.4373779 0.5236875
vt 0.3751221 0.5236875
vt 0.4376221 0.4763125
vt 0.4998779 0.4763125
vt 0.4998779 0.5236875
vt 0.4376221 0.5236875
vt 0.4376221 0.6191697
vt 0.4998779 0.6191697
vt 0.4998779 0.6665446
vt 0.4376221 0.6665446
vt 0.5001221 0.6667888
vt 0.5623779 0.6667888
vt 0.5623779 0.7141637
vt 0.5001221 0.7141637
vt 0.3751221 0.3810745
vt 0.4373779 0.3810745
vt 0.4373779 0.4284494
vt 0.3751221 0.4284494
vt 0.3751221 0.8096459
vt 0.4373779 0.8096459
vt 0.4373779 0.8570208
vt 0.3751221 0.8570208
vt 0.8126221 0.7620268
vt 0.8748779 0.7620268
vt 0.8748779 0.8094018
vt 0.8126221 0.8094018
vt 0.8751221 0.7620268
vt 0.9373779 0.7620268
vt 0.9373779 0.8094018
vt 0.8751221 0.8094018
vt 0.8126221 0.7144078
vt 0.8748779 0.7144078
vt 0.8748779 0.7617827
vt 0.8126221 0.7617827
vt 0.8751221 0.7144078
vt 0.9373779 0.7144078
vt 0.9373779 0.7617827
vt 0.8751221 0.7617827
vt 0.06262207 0.7620268
vt 0.1248779 0.7620268
vt 0.1248779 0.8094018
vt 0.06262207 0.8094018
vt 0.06262207 0.8572649
vt 0.1248779 0.8572649
vt 0.1248779 0.9046398
vt 0.06262207 0.9046398
vt 0.1251221 0.8572649
vt 0.1873779 0.8572649
vt 0.1873779 0.9046398
vt 0.1251221 0.9046398
vt 0.1251221 0.8096459
vt 0.1873779 0.8096459
vt 0.1873779 0.8570208
vt 0.1251221 0.8570208
vt 0.1251221 0.904884
vt 0.1873779 0.904884
vt 0.1873779 0.9522589
vt 0.1251221 0.9522589
vt 0.6251221 0.8096459
vt 0.6873779 0.8096459
vt 0.6873779 0.8570208
vt 0.6251221 0.8570208
vt 0.4376221 0.8096459
vt 0.4998779 0.8096459
vt 0.4998779 0.8570208
vt 0.4376221 0.8570208
vt 0.4376221 0.7620268
vt 0.4998779 0.7620268
vt 0.4998779 0.8094018
vt 0.4376221 0.8094018
vt 0.7501221 0.8096459
vt 0.8123779 0.8096459
vt 0.8123779 0.8570208
vt 0.7501221 0.8570208
vt 0.8126221 0.8096459
vt 0.8748779 0.8096459
vt 0.8748779 0.8570208
vt 0.8126221 0.8570208
vt 0.8751221 0.8096459
vt 0.9373779 0.8096459
vt 0.9373779 0.8570208
vt 0.8751221 0.8570208
vt 0.9376221 0.8096459
vt 0.9998779 0.8096459
vt 0.9998779 0.8570208
vt 0.9376221 0.8570208
vt 0.6876221 0.904884
vt 0.7498779 0.904884
vt 0.7498779 0.9522589
vt 0.6876221 0.9522589
vt 0.6876221 0.8096459
vt 0.7498779 0.8096459
vt 0.7498779 0.8570208
vt 0.6876221 0.8570208
vt 0.5626221 0.5239316
vt 0.6248779 0.5239316
vt 0.6248779 0.5713065
vt 0.5626221 0.5713065
vt 0.6876221 0.8572649
vt 0.7498779 0.8572649
vt 0.7498779 0.9046398
vt 0.6876221 0.9046398
vt 0.5001221 0.904884
vt 0.5623779 0.904884
vt 0.5623779 0.9522589
vt 0.5001221 0.9522589
vt 0.5626221 0.4763125
vt 0.6248779 0.4763125
vt 0.6248779 0.5236875
vt 0.5626221 0.5236875
vt 0.7501221 0.7620268
vt 0.8123779 0.7620268
vt 0.8123779 0.8094018
vt 0.7501221 0.8094018
vt 0.9376221 0.7620268
vt 0.9998779 0.7620268
vt 0.9998779 0.8094018
vt 0.9376221 0.8094018
vt 0.8126221 0.6667888
vt 0.8748779 0.6667888
vt 0.8748779 0.7141637
vt 0.8126221 0.7141637
vt 0.8751221 0.6667888
vt 0.9373779 0.6667888
vt 0.9373779 0.7141637
vt 0.8751221 0.7141637
vt 0.7501221 0.7144078
vt 0.8123779 0.7144078
vt 0.8123779 0.7617827
vt 0.7501221 0.7617827
vt 0.9376221 0.7144078
vt 0.9998779 0.7144078
vt 0.9998779 0.7617827
vt 0.9376221 0.7617827
vt 0.7501221 0.6667888
vt 0.8123779 0.6667888
vt 0.8123779 0.7141637
vt 0.7501221 0.7141637
vt 0.9376221 0.6667888
vt 0.9998779 0.6667888
vt 0.9998779 0.7141637
vt 0.9376221 0.7141637
vt 0.3751221 0.8572649
vt 0.4373779 0.8572649
vt 0.4373779 0.9046398
vt 0.3751221 0.9046398

# Normal
vn 0 0 -1

# Groups (Count = 2)
g mesh_[00]_[00]
f  1/1/1  2/2/1  3/3/1  4/4/1 
f  2/5/1  5/6/1  6/7/1  3/8/1 
f  5/9/1  7/10/1  8/11/1  6/12/1 
f  7/13/1  9/14/1  10/15/1  8/16/1 
f  9/17/1  11/18/1  12/19/1  10/20/1 
f  11/1/1  13/2/1  14/3/1  12/4/1 
f  13/1/1  15/2/1  16/3/1  14/4/1 
f  15/1/1  17/2/1  18/3/1  16/4/1 
f  17/1/1  19/2/1  20/3/1  18/4/1 
f  19/1/1  21/2/1  22/3/1  20/4/1 
f  21/1/1  23/2/1  24/3/1  22/4/1 
f  23/21/1  25/22/1  26/23/1  24/24/1 
f  25/25/1  27/26/1  28/27/1  26/28/1 
f  27/25/1  29/26/1  30/27/1  28/28/1 
f  29/25/1  31/26/1  32/27/1  30/28/1 
f  31/25/1  33/26/1  34/27/1  32/28/1 
f  33/25/1  35/26/1  36/27/1  34/28/1 
f  35/25/1  37/26/1  38/27/1  36/28/1 
f  37/25/1  39/26/1  40/27/1  38/28/1 
f  39/25/1  41/26/1  42/27/1  40/28/1 
f  41/25/1  43/26/1  44/27/1  42/28/1 
f  45/1/1  46/2/1  2/3/1  1/4/1 
f  46/29/1  47/30/1  5/31/1  2/32/1 
f  47/33/1  48/34/1  7/35/1  5/36/1 
f  48/37/1  49/38/1  9/39/1  7/40/1 
f  49/13/1  50/14/1  11/15/1  9/16/1 
f  50/17/1  51/18/1  13/19/1  11/20/1 
f  51/1/1  52/2/1  15/3/1  13/4/1 
f  52/1/1  53/2/1  17/3/1  15/4/1 
f  53/5/1  54/6/1  19/7/1  17/8/1 
f  54/41/1  55/42/1  21/43/1  19/44/1 
f  55/41/1  56/42/1  23/43/1  21/44/1 
f  56/9/1  57/10/1  25/11/1  23/12/1 
f  57/25/1  58/26/1  27/27/1  25/28/1 
f  58/25/1  59/26/1  29/27/1  27/28/1 
f  59/25/1  60/26/1  31/27/1  29/28/1 
f  60/25/1  61/26/1  33/27/1  31/28/1 
f  61/25/1  62/26/1  35/27/1  33/28/1 
f  62/25/1  63/26/1  37/27/1  35/28/1 
f  63/25/1  64/26/1  39/27/1  37/28/1 
f  64/25/1  65/26/1  41/27/1  39/28/1 
f  65/25/1  66/26/1  43/27/1  41/28/1 
f  67/1/1  68/2/1  46/3/1  45/4/1 
f  68/1/1  69/2/1  47/3/1  46/4/1 
f  69/29/1  70/30/1  48/31/1  47/32/1 
f  70/33/1  71/34/1  49/35/1  48/36/1 
f  71/45/1  72/46/1  50/47/1  49/48/1 
f  72/49/1  73/50/1  51/51/1  50/52/1 
f  73/5/1  74/6/1  52/7/1  51/8/1 
f  74/41/1  75/42/1  53/43/1  52/44/1 
f  75/9/1  76/10/1  54/11/1  53/12/1 
f  76/53/1  77/54/1  55/55/1  54/56/1 
f  77/25/1  78/26/1  56/27/1  55/28/1 
f  78/53/1  79/54/1  57/55/1  56/56/1 
f  79/53/1  80/54/1  58/55/1  57/56/1 
f  80/25/1  81/26/1  59/27/1  58/28/1 
f  81/25/1  82/26/1  60/27/1  59/28/1 
f  82/37/1  83/38/1  61/39/1  60/40/1 
f  83/53/1  84/54/1  62/55/1  61/56/1 
f  84/53/1  85/54/1  63/55/1  62/56/1 
f  85/25/1  86/26/1  64/27/1  63/28/1 
f  86/25/1  87/26/1  65/27/1  64/28/1 
f  87/25/1  88/26/1  66/27/1  65/28/1 
f  89/1/1  90/2/1  68/3/1  67/4/1 
f  90/1/1  91/2/1  69/3/1  68/4/1 
f  91/1/1  92/2/1  70/3/1  69/4/1 
f  92/57/1  93/58/1  71/59/1  70/60/1 
f  93/61/1  94/62/1  72/63/1  71/64/1 
f  94/5/1  95/6/1  73/7/1  72/8/1 
f  95/9/1  96/10/1  74/11/1  73/12/1 
f  96/53/1  97/54/1  75/55/1  74/56/1 
f  97/53/1  98/54/1  76/55/1  75/56/1 
f  98/53/1  99/54/1  77/55/1  76/56/1 
f  99/25/1  100/26/1  78/27/1  77/28/1 
f  100/25/1  101/26/1  79/27/1  78/28/1 
f  101/53/1  102/54/1  80/55/1  79/56/1 
f  102/53/1  103/54/1  81/55/1  80/56/1 
f  103/25/1  104/26/1  82/27/1  81/28/1 
f  104/53/1  105/54/1  83/55/1  82/56/1 
f  105/25/1  106/26/1  84/27/1  83/28/1 
f  106/25/1  107/26/1  85/27/1  84/28/1 
f  107/25/1  108/26/1  86/27/1  85/28/1 
f  108/25/1  109/26/1  87/27/1  86/28/1 
f  109/25/1  110/26/1  88/27/1  87/28/1 
f  111/1/1  112/2/1  90/3/1  89/4/1 
f  112/1/1  113/2/1  91/3/1  90/4/1 
f  113/1/1  114/2/1  92/3/1  91/4/1 
f  114/1/1  115/2/1  93/3/1  92/4/1 
f  115/5/1  116/6/1  94/7/1  93/8/1 
f  116/9/1  117/10/1  95/11/1  94/12/1 
f  117/53/1  118/54/1  96/55/1  95/56/1 
f  118/25/1  119/26/1  97/27/1  96/28/1 
f  119/53/1  120/54/1  98/55/1  97/56/1 
f  120/45/1  121/46/1  99/47/1  98/48/1 
f  121/65/1  122/66/1  100/67/1  99/68/1 
f  122/33/1  123/34/1  101/35/1  100/36/1 
f  123/25/1  124/26/1  102/27/1  101/28/1 
f  124/25/1  125/26/1  103/27/1  102/28/1 
f  125/53/1  126/54/1  104/55/1  103/56/1 
f  126/53/1  127/54/1  105/55/1  104/56/1 
f  127/25/1  128/26/1  106/27/1  105/28/1 
f  128/25/1  129/26/1  107/27/1  106/28/1 
f  129/25/1  130/26/1  108/27/1  107/28/1 
f  130/53/1  131/54/1  109/55/1  108/56/1 
f  131/25/1  132/26/1  110/27/1  109/28/1 
f  133/1/1  134/2/1  112/3/1  111/4/1 
f  134/5/1  135/6/1  113/7/1  112/8/1 
f  135/41/1  136/42/1  114/43/1  113/44/1 
f  136/41/1  137/42/1  115/43/1  114/44/1 
f  137/9/1  138/10/1  116/11/1  115/12/1 
f  138/53/1  139/54/1  117/55/1  116/56/1 
f  139/25/1  140/26/1  118/27/1  117/28/1 
f  140/53/1  141/54/1  119/55/1  118/56/1 
f  141/53/1  142/54/1  120/55/1  119/56/1 
f  142/69/1  143/70/1  121/71/1  120/72/1 
f  143/1/1  144/2/1  122/3/1  121/4/1 
f  144/21/1  145/22/1  123/23/1  122/24/1 
f  145/53/1  146/54/1  124/55/1  123/56/1 
f  146/53/1  147/54/1  125/55/1  124/56/1 
f  147/25/1  148/26/1  126/27/1  125/28/1 
f  148/53/1  149/54/1  127/55/1  126/56/1 
f  149/25/1  150/26/1  128/27/1  127/28/1 
f  150/73/1  151/74/1  129/75/1  128/76/1 
f  151/25/1  152/26/1  130/27/1  129/28/1 
f  152/25/1  153/26/1  131/27/1  130/28/1 
f  153/53/1  154/54/1  132/55/1  131/56/1 
f  155/1/1  156/2/1  134/3/1  133/4/1 
f  156/21/1  157/22/1  135/23/1  134/24/1 
f  157/25/1  158/26/1  136/27/1  135/28/1 
f  158/25/1  159/26/1  137/27/1  136/28/1 
f  159/53/1  160/54/1  138/55/1  137/56/1 
f  160/53/1  161/54/1  139/55/1  138/56/1 
f  161/45/1  162/46/1  140/47/1  139/48/1 
f  162/65/1  163/66/1  141/67/1  140/68/1 
f  163/65/1  164/66/1  142/67/1  141/68/1 
f  164/49/1  165/50/1  143/51/1  142/52/1 
f  165/5/1  166/6/1  144/7/1  143/8/1 
f  166/9/1  167/10/1  145/11/1  144/12/1 
f  167/25/1  168/26/1  146/27/1  145/28/1 
f  168/53/1  169/54/1  147/55/1  146/56/1 
f  169/53/1  170/54/1  148/55/1  147/56/1 
f  170/77/1  171/78/1  149/79/1  148/80/1 
f  171/77/1  172/78/1  150/79/1  149/80/1 
f  172/53/1  173/54/1  151/55/1  150/56/1 
f  173/25/1  174/26/1  152/27/1  151/28/1 
f  174/53/1  175/54/1  153/55/1  152/56/1 
f  175/53/1  176/54/1  154/55/1  153/56/1 
f  177/5/1  178/6/1  156/7/1  155/8/1 
f  178/9/1  179/10/1  157/11/1  156/12/1 
f  179/53/1  180/54/1  158/55/1  157/56/1 
f  180/25/1  181/26/1  159/27/1  158/28/1 
f  181/53/1  182/54/1  160/55/1  159/56/1 
f  182/53/1  183/54/1  161/55/1  160/56/1 
f  183/69/1  184/70/1  162/71/1  161/72/1 
f  184/1/1  185/2/1  163/3/1  162/4/1 
f  185/1/1  186/2/1  164/3/1  163/4/1 
f  186/1/1  187/2/1  165/3/1  164/4/1 
f  187/21/1  188/22/1  166/23/1  165/24/1 
f  188/53/1  189/54/1  167/55/1  166/56/1 
f  189/25/1  190/26/1  168/27/1  167/28/1 
f  190/25/1  191/26/1  169/27/1  168/28/1 
f  191/53/1  192/54/1  170/55/1  169/56/1 
f  192/77/1  193/78/1  171/79/1  170/80/1 
f  193/77/1  194/78/1  172/79/1  171/80/1 
f  194/53/1  195/54/1  173/55/1  172/56/1 
f  195/25/1  196/26/1  174/27/1  173/28/1 
f  196/25/1  197/26/1  175/27/1  174/28/1 
f  197/53/1  198/54/1  176/55/1  175/56/1 
f  199/21/1  200/22/1  178/23/1  177/24/1 
f  200/53/1  201/54/1  179/55/1  178/56/1 
f  201/53/1  202/54/1  180/55/1  179/56/1 
f  202/53/1  203/54/1  181/55/1  180/56/1 
f  203/25/1  204/26/1  182/27/1  181/28/1 
f  204/45/1  205/46/1  183/47/1  182/48/1 
f  205/49/1  206/50/1  184/51/1  183/52/1 
f  206/1/1  207/2/1  185/3/1  184/4/1 
f  207/1/1  208/2/1  186/3/1  185/4/1 
f  208/5/1  209/6/1  187/7/1  186/8/1 
f  209/9/1  210/10/1  188/11/1  187/12/1 
f  210/25/1  211/26/1  189/27/1  188/28/1 
f  211/53/1  212/54/1  190/55/1  189/56/1 
f  212/25/1  213/26/1  191/27/1  190/28/1 
f  213/53/1  214/54/1  192/55/1  191/56/1 
f  214/81/1  215/82/1  193/83/1  192/84/1 
f  215/85/1  216/86/1  194/87/1  193/88/1 
f  216/53/1  217/54/1  195/55/1  194/56/1 
f  217/53/1  218/54/1  196/55/1  195/56/1 
f  218/53/1  219/54/1  197/55/1  196/56/1 
f  219/53/1  220/54/1  198/55/1  197/56/1 
f  221/21/1  222/22/1  200/23/1  199/24/1 
f  222/53/1  223/54/1  201/55/1  200/56/1 
f  223/53/1  224/54/1  202/55/1  201/56/1 
f  224/53/1  225/54/1  203/55/1  202/56/1 
f  225/25/1  226/26/1  204/27/1  203/28/1 
f  226/69/1  227/70/1  205/71/1  204/72/1 
f  227/1/1  228/2/1  206/3/1  205/4/1 
f  228/1/1  229/2/1  207/3/1  206/4/1 
f  229/1/1  230/2/1  208/3/1  207/4/1 
f  230/21/1  231/22/1  209/23/1  208/24/1 
f  231/25/1  232/26/1  210/27/1  209/28/1 
f  232/25/1  233/26/1  211/27/1  210/28/1 
f  233/25/1  234/26/1  212/27/1  211/28/1 
f  234/25/1  235/26/1  213/27/1  212/28/1 
f  235/25/1  236/26/1  214/27/1  213/28/1 
f  236/89/1  237/90/1  215/91/1  214/92/1 
f  237/93/1  238/94/1  216/95/1  215/96/1 
f  238/53/1  239/54/1  217/55/1  216/56/1 
f  239/25/1  240/26/1  218/27/1  217/28/1 
f  240/25/1  241/26/1  219/27/1  218/28/1 
f  241/53/1  242/54/1  220/55/1  219/56/1 
f  243/21/1  244/22/1  222/23/1  221/24/1 
f  244/53/1  245/54/1  223/55/1  222/56/1 
f  245/53/1  246/54/1  224/55/1  223/56/1 
f  246/53/1  247/54/1  225/55/1  224/56/1 
f  247/53/1  248/54/1  226/55/1  225/56/1 
f  248/13/1  249/14/1  227/15/1  226/16/1 
f  249/41/1  250/42/1  228/43/1  227/44/1 
f  250/17/1  251/18/1  229/19/1  228/20/1 
f  251/1/1  252/2/1  230/3/1  229/4/1 
f  252/29/1  253/30/1  231/31/1  230/32/1 
f  253/33/1  254/34/1  232/35/1  231/36/1 
f  254/53/1  255/54/1  233/55/1  232/56/1 
f  255/25/1  256/26/1  234/27/1  233/28/1 
f  256/25/1  257/26/1  235/27/1  234/28/1 
f  257/53/1  258/54/1  236/55/1  235/56/1 
f  258/25/1  259/26/1  237/27/1  236/28/1 
f  259/53/1  260/54/1  238/55/1  237/56/1 
f  260/53/1  261/54/1  239/55/1  238/56/1 
f  261/25/1  262/26/1  240/27/1  239/28/1 
f  262/53/1  263/54/1  241/55/1  240/56/1 
f  263/97/1  264/98/1  242/99/1  241/100/1 
f  265/21/1  266/22/1  244/23/1  243/24/1 
f  266/53/1  267/54/1  245/55/1  244/56/1 
f  267/53/1  268/54/1  246/55/1  245/56/1 
f  268/53/1  269/54/1  247/55/1  246/56/1 
f  269/53/1  270/54/1  248/55/1  247/56/1 
f  270/25/1  271/26/1  249/27/1  248/28/1 
f  271/25/1  272/26/1  250/27/1  249/28/1 
f  272/13/1  273/14/1  251/15/1  250/16/1 
f  273/17/1  274/18/1  252/19/1  251/20/1 
f  274/1/1  275/2/1  253/3/1  252/4/1 
f  275/21/1  276/22/1  254/23/1  253/24/1 
f  276/53/1  277/54/1  255/55/1  254/56/1 
f  277/53/1  278/54/1  256/55/1  255/56/1 
f  278/97/1  279/98/1  257/99/1  256/100/1 
f  279/101/1  280/102/1  258/103/1  257/104/1 
f  280/101/1  281/102/1  259/103/1  258/104/1 
f  281/101/1  282/102/1  260/103/1  259/104/1 
f  282/101/1  283/102/1  261/103/1  260/104/1 
f  283/101/1  284/102/1  262/103/1  261/104/1 
f  284/101/1  285/102/1  263/103/1  262/104/1 
f  285/105/1  286/106/1  264/107/1  263/108/1 
f  287/21/1  288/22/1  266/23/1  265/24/1 
f  288/53/1  289/54/1  267/55/1  266/56/1 
f  289/53/1  290/54/1  268/55/1  267/56/1 
f  290/53/1  291/54/1  269/55/1  268/56/1 
f  291/53/1  292/54/1  270/55/1  269/56/1 
f  292/53/1  293/54/1  271/55/1  270/56/1 
f  293/53/1  294/54/1  272/55/1  271/56/1 
f  294/25/1  295/26/1  273/27/1  272/28/1 
f  295/13/1  296/14/1  274/15/1  273/16/1 
f  296/41/1  297/42/1  275/43/1  274/44/1 
f  297/9/1  298/10/1  276/11/1  275/12/1 
f  298/53/1  299/54/1  277/55/1  276/56/1 
f  299/97/1  300/98/1  278/99/1  277/100/1 
f  300/105/1  301/106/1  279/107/1  278/108/1 
f  301/109/1  302/110/1  280/111/1  279/112/1 
f  302/109/1  303/110/1  281/111/1  280/112/1 
f  303/109/1  304/110/1  282/111/1  281/112/1 
f  304/109/1  305/110/1  283/111/1  282/112/1 
f  305/109/1  306/110/1  284/111/1  283/112/1 
f  306/109/1  307/110/1  285/111/1  284/112/1 
f  307/109/1  308/110/1  286/111/1  285/112/1 
f  309/21/1  310/22/1  288/23/1  287/24/1 
f  310/53/1  311/54/1  289/55/1  288/56/1 
f  311/53/1  312/54/1  290/55/1  289/56/1 
f  312/53/1  313/54/1  291/55/1  290/56/1 
f  313/53/1  314/54/1  292/55/1  291/56/1 
f  314/53/1  315/54/1  293/55/1  292/56/1 
f  315/53/1  316/54/1  294/55/1  293/56/1 
f  316/25/1  317/26/1  295/27/1  294/28/1 
f  317/25/1  318/26/1  296/27/1  295/28/1 
f  318/25/1  319/26/1  297/27/1  296/28/1 
f  319/25/1  320/26/1  298/27/1  297/28/1 
f  320/53/1  321/54/1  299/55/1  298/56/1 
f  321/113/1  322/114/1  300/115/1  299/116/1 
f  322/109/1  323/110/1  301/111/1  300/112/1 
f  323/117/1  324/118/1  302/119/1  301/120/1 
f  324/77/1  325/78/1  303/79/1  302/80/1 
f  325/77/1  326/78/1  304/79/1  303/80/1 
f  326/77/1  327/78/1  305/79/1  304/80/1 
f  327/77/1  328/78/1  306/79/1  305/80/1 
f  328/77/1  329/78/1  307/79/1  306/80/1 
f  329/121/1  330/122/1  308/123/1  307/124/1 
f  331/21/1  332/22/1  310/23/1  309/24/1 
f  332/25/1  333/26/1  311/27/1  310/28/1 
f  333/25/1  334/26/1  312/27/1  311/28/1 
f  334/25/1  335/26/1  313/27/1  312/28/1 
f  335/25/1  336/26/1  314/27/1  313/28/1 
f  336/25/1  337/26/1  315/27/1  314/28/1 
f  337/25/1  338/26/1  316/27/1  315/28/1 
f  338/53/1  339/54/1  317/55/1  316/56/1 
f  339/53/1  340/54/1  318/55/1  317/56/1 
f  340/53/1  341/54/1  319/55/1  318/56/1 
f  341/53/1  342/54/1  320/55/1  319/56/1 
f  342/53/1  343/54/1  321/55/1  320/56/1 
f  343/113/1  344/114/1  322/115/1  321/116/1 
f  344/109/1  345/110/1  323/111/1  322/112/1 
f  345/117/1  346/118/1  324/119/1  323/120/1 
f  346/77/1  347/78/1  325/79/1  324/80/1 
f  347/77/1  348/78/1  326/79/1  325/80/1 
f  348/77/1  349/78/1  327/79/1  326/80/1 
f  349/77/1  350/78/1  328/79/1  327/80/1 
f  350/77/1  351/78/1  329/79/1  328/80/1 
f  351/125/1  352/126/1  330/127/1  329/128/1 
g mesh_[01]_[00]
f  125/129/1  126/130/1  104/131/1  103/132/1 
f  126/133/1  127/134/1  105/135/1  104/136/1 
f  127/137/1  128/138/1  106/139/1  105/140/1 
f  128/141/1  129/142/1  107/143/1  106/144/1 
f  147/145/1  148/146/1  126/147/1  125/148/1 
f  148/77/1  149/78/1  127/79/1  126/80/1 
f  149/77/1  150/78/1  128/79/1  127/80/1 
f  150/149/1  151/150/1  129/151/1  128/152/1 
f  151/133/1  152/134/1  130/135/1  129/136/1 
f  152/133/1  153/134/1  131/135/1  130/136/1 
f  153/137/1  154/138/1  132/139/1  131/140/1 
f  169/145/1  170/146/1  148/147/1  147/148/1 
f  172/77/1  173/78/1  151/79/1  150/80/1 
f  173/81/1  174/82/1  152/83/1  151/84/1 
f  174/85/1  175/86/1  153/87/1  152/88/1 
f  175/153/1  176/154/1  154/155/1  153/156/1 
f  191/157/1  192/158/1  170/159/1  169/160/1 
f  194/161/1  195/162/1  173/163/1  172/164/1 
f  195/89/1  196/90/1  174/91/1  173/92/1 
f  196/93/1  197/94/1  175/95/1  174/96/1 
f  197/165/1  198/166/1  176/167/1  175/168/1 
f  213/169/1  214/170/1  192/171/1  191/172/1 
f  216/173/1  217/174/1  195/175/1  194/176/1 
f  217/177/1  218/178/1  196/179/1  195/180/1 
f  218/181/1  219/182/1  197/183/1  196/184/1 
f  219/177/1  220/178/1  198/179/1  197/180/1 
f  235/185/1  236/186/1  214/187/1  213/188/1 
f  238/189/1  239/190/1  217/191/1  216/192/1 
f  257/193/1  258/194/1  236/195/1  235/196/1 
f  258/177/1  259/178/1  237/179/1  236/180/1 
f  259/181/1  260/182/1  238/183/1  237/184/1 
f  260/197/1  261/198/1  239/199/1  238/200/1 
f  301/129/1  302/130/1  280/131/1  279/132/1 
f  302/133/1  303/134/1  281/135/1  280/136/1 
f  303/133/1  304/134/1  282/135/1  281/136/1 
f  304/133/1  305/134/1  283/135/1  282/136/1 
f  305/133/1  306/134/1  284/135/1  283/136/1 
f  306/137/1  307/138/1  285/139/1  284/140/1 
f  307/141/1  308/142/1  286/143/1  285/144/1 
f  309/133/1  310/134/1  288/135/1  287/136/1 
f  310/137/1  311/138/1  289/139/1  288/140/1 
f  311/133/1  312/134/1  290/135/1  289/136/1 
f  312/137/1  313/138/1  291/139/1  290/140/1 
f  313/133/1  314/134/1  292/135/1  291/136/1 
f  314/137/1  315/138/1  293/139/1  292/140/1 
f  315/141/1  316/142/1  294/143/1  293/144/1 
f  331/77/1  332/78/1  310/79/1  309/80/1 
f  332/77/1  333/78/1  311/79/1  310/80/1 
f  333/77/1  334/78/1  312/79/1  311/80/1 
f  334/77/1  335/78/1  313/79/1  312/80/1 
f  335/77/1  336/78/1  314/79/1  313/80/1 
f  336/77/1  337/78/1  315/79/1  314/80/1 
f  337/201/1  338/202/1  316/203/1  315/204/1 
